<svg version="1.1" id="Layer_1" xmlns="http://www.w3.org/2000/svg" xmlns:xlink="http://www.w3.org/1999/xlink" x="0px" y="0px"
	 width="100%" viewBox="0 0 512 512" enable-background="new 0 0 512 512" xml:space="preserve">
<path fill="#000000" opacity="1.000000" stroke="none" 
	d="
M154.589111,283.407806 
	C152.642136,286.299652 154.676575,288.490082 155.156738,290.822662 
	C164.075577,334.149445 174.995880,377.038788 183.529419,420.449127 
	C187.948441,442.928741 192.233032,465.434875 196.541367,487.936096 
	C196.852509,489.561096 196.934097,491.241577 196.991745,492.900787 
	C197.072861,495.235870 196.484161,497.402679 193.864151,497.890839 
	C190.877777,498.447327 189.692261,496.217041 189.062012,493.881165 
	C188.153473,490.513885 187.218933,487.106201 186.824875,483.655334 
	C184.690613,464.965271 180.771576,446.583801 177.297623,428.131714 
	C170.829849,393.777924 162.370056,359.872711 153.826431,325.990021 
	C151.832901,318.083984 150.080933,310.117249 148.136444,302.198425 
	C147.800491,300.830261 148.081024,299.118011 145.847397,297.895538 
	C139.110046,308.681763 131.850067,319.148560 128.283768,331.635071 
	C127.187004,335.475128 126.089294,339.318970 124.830635,343.107452 
	C123.839859,346.089661 121.912621,348.368561 118.506279,346.957092 
	C115.203110,345.588318 116.294716,342.798889 116.996338,340.097412 
	C122.065086,320.581085 132.504593,303.738556 143.385452,287.153442 
	C149.345703,278.068512 154.021423,268.337708 158.880539,258.680756 
	C159.627319,257.196594 160.386627,255.676666 161.404846,254.381378 
	C162.835602,252.561310 164.383240,250.500397 167.105118,251.017166 
	C169.899887,251.547745 169.771637,254.077469 170.696091,256.225220 
	C176.669952,270.103912 174.608414,285.493256 179.221481,299.579895 
	C179.734100,301.145203 180.056396,302.772797 181.306168,304.504791 
	C182.152435,300.643890 182.962906,296.774719 183.856598,292.924805 
	C184.540497,289.978607 185.098236,286.620087 189.166672,286.901886 
	C192.904709,287.160797 192.699554,290.349976 193.497787,293.127838 
	C196.575714,303.839050 199.949570,314.469849 203.424606,325.061249 
	C208.976486,341.982605 214.432709,358.942413 221.261276,375.413300 
	C221.494370,375.975494 221.761490,376.523560 222.250992,377.604126 
	C222.786743,372.735107 223.288269,368.516510 223.707993,364.289825 
	C224.498352,356.330475 232.661148,348.847198 240.691635,348.769501 
	C250.282883,348.676727 257.742737,357.955933 255.493729,367.214813 
	C254.828156,369.954865 253.720093,372.691040 256.402222,375.762543 
	C256.675140,371.367523 261.811707,368.669067 259.086365,363.848389 
	C256.952972,360.074799 256.000092,355.824127 254.289429,351.865906 
	C250.753876,343.685181 248.363129,335.004272 245.603180,326.496063 
	C244.218353,322.227051 242.779617,317.940857 241.905426,313.554779 
	C241.437592,311.207489 240.443375,307.738159 244.298584,306.994659 
	C247.648224,306.348663 248.789780,308.973663 249.629089,311.719238 
	C251.717484,318.550842 253.915497,325.348938 256.194580,332.556000 
	C257.103851,331.107941 257.635712,329.945740 258.449097,329.035004 
	C259.882996,327.429504 261.700562,326.733276 263.853668,327.545227 
	C265.927948,328.327454 266.248169,330.056854 266.328979,332.000214 
	C266.542023,337.122986 264.625641,341.799164 263.346710,346.606171 
	C262.923981,348.195129 262.362854,349.590149 262.883606,351.407806 
	C269.823578,375.631287 279.216278,398.924072 289.431488,421.908936 
	C289.822021,422.787689 290.449402,423.561188 291.374878,425.033539 
	C292.952759,418.154266 294.309448,411.935822 295.834747,405.758972 
	C296.348328,403.679138 297.095215,401.602570 298.089355,399.710449 
	C299.149811,397.692230 300.862518,396.228485 303.402832,397.150696 
	C305.879578,398.049866 307.359100,399.983368 306.775391,402.586700 
	C304.583527,412.362152 301.359344,421.845764 297.283508,430.969299 
	C295.142487,435.761841 289.545898,435.771637 286.512848,431.236328 
	C281.013245,423.012726 277.928711,413.600311 273.899170,404.657745 
	C271.258270,398.796997 268.884766,392.815765 266.196716,386.425385 
	C260.051819,391.260773 254.583786,390.777222 248.197815,387.603851 
	C244.158295,385.596527 238.748108,387.743958 234.004089,386.360596 
	C231.319229,385.577667 228.446762,385.438141 225.259262,384.947296 
	C225.667953,389.041626 227.643005,392.667633 228.972244,396.451385 
	C236.972580,419.224792 245.080994,441.960297 253.073227,464.736542 
	C254.172226,467.868500 254.865997,471.146515 255.676559,474.374695 
	C256.521729,477.740784 254.992554,480.290985 252.397629,482.091156 
	C249.990326,483.761230 246.386414,482.004761 247.077957,479.450134 
	C248.903458,472.706573 245.823807,466.978516 243.889816,461.096344 
	C233.018631,428.031982 220.122116,395.703400 207.937393,363.116791 
	C202.628220,348.918030 197.731720,334.587311 193.285019,320.097260 
	C192.467163,317.432190 191.320312,314.868073 190.196014,311.918091 
	C186.995285,319.986664 189.177216,327.792725 189.063538,335.509583 
	C189.013474,338.908722 189.864182,343.585358 185.144592,343.903656 
	C180.111557,344.243134 180.229553,339.397675 179.934097,335.828674 
	C179.239578,327.439545 176.334259,319.585571 174.113281,311.590729 
	C170.059937,296.999817 167.050629,282.196350 164.124329,265.670044 
	C160.562607,272.295380 157.661392,277.692108 154.589111,283.407806 
M237.637268,360.399445 
	C232.360764,365.650391 232.064621,369.768402 236.949310,375.204254 
	C239.989853,370.598145 239.606552,365.371704 240.289536,360.463379 
	C240.400208,359.667969 239.021454,359.750946 237.637268,360.399445 
z"/>
<path fill="#000000" opacity="1.000000" stroke="none" 
	d="
M417.101105,59.213646 
	C398.552826,69.743675 380.220123,79.913445 362.626526,91.355591 
	C359.149231,93.617065 357.924316,96.205025 357.824371,100.312180 
	C357.297943,121.940010 355.651031,143.494522 352.648682,164.932816 
	C352.278595,167.575317 352.270325,170.170837 352.833435,172.854828 
	C353.528656,176.168594 349.746490,180.892685 346.459900,181.101807 
	C343.037506,181.319565 341.118317,179.515854 340.858154,176.138626 
	C340.688690,173.938751 340.484375,171.996399 338.510803,170.411896 
	C326.837799,161.040176 314.668030,152.265656 303.861664,141.844208 
	C301.176025,139.254227 298.845276,139.227341 295.620544,141.557129 
	C286.713074,147.992584 277.783325,154.360184 269.563019,161.689377 
	C267.874084,163.195190 267.193176,164.711990 267.228546,166.847519 
	C267.300232,171.177887 267.204834,175.511230 267.290741,179.841110 
	C267.346344,182.644928 266.101593,184.290756 263.356476,184.676193 
	C260.257935,185.111252 258.734039,183.308121 258.057312,180.585800 
	C257.346680,177.727081 258.384277,174.609131 256.826538,171.618347 
	C253.697418,171.559021 250.712051,175.410385 247.591843,172.328873 
	C245.660080,170.421066 247.514221,168.430145 248.383560,166.087082 
	C244.245651,167.060684 240.562119,167.974075 236.856155,168.784973 
	C233.742722,169.466202 230.873138,168.896790 230.192825,165.391739 
	C229.560333,162.133072 232.284821,161.215256 234.842911,160.715103 
	C243.167725,159.087509 251.434372,156.938934 259.965942,156.796631 
	C265.270935,156.708160 268.342194,152.845184 271.867462,150.062332 
	C277.888306,145.309494 284.081421,140.831955 290.538055,136.739548 
	C293.651093,134.766418 293.736542,133.454056 291.303162,130.672836 
	C277.295929,114.663483 268.344788,96.107330 264.431152,75.198395 
	C262.171539,63.126202 266.761261,55.351044 278.323883,51.058098 
	C290.501526,46.536793 296.387482,43.849346 315.104736,49.860744 
	C316.323486,49.248016 316.412720,48.005592 316.652130,46.905685 
	C319.713684,32.840023 335.332977,25.691120 346.325806,26.688545 
	C350.450775,27.062824 352.961609,28.997091 354.295135,33.012272 
	C357.120514,41.519279 357.492767,50.344898 357.853088,59.134655 
	C358.198639,67.564880 357.927734,76.020386 357.927734,85.980957 
	C384.588226,68.087646 412.837372,55.593403 438.592651,36.617401 
	C432.168945,37.264233 426.853027,37.601898 421.697906,39.253170 
	C420.117920,39.759254 418.476471,40.090622 416.846619,40.419987 
	C414.324402,40.929672 411.912689,40.590271 411.216156,37.761799 
	C410.481506,34.778439 412.845703,33.483036 415.174164,33.007401 
	C421.194946,31.777534 427.247681,30.599054 433.343689,29.866701 
	C442.853455,28.724232 452.278564,27.660967 458.814850,19.381105 
	C459.210419,18.879980 459.842834,18.508715 460.437103,18.231638 
	C462.731506,17.161924 464.810822,14.727748 467.685974,16.927139 
	C470.470703,19.057373 468.107025,21.405325 467.673889,23.652679 
	C470.664062,24.645903 475.051086,22.846914 475.673553,27.327311 
	C476.311554,31.919151 472.199890,32.847221 468.998779,34.102291 
	C461.898499,36.886116 454.304810,38.515705 448.112335,43.379524 
	C445.633148,45.326797 443.174347,47.043831 441.689056,50.129097 
	C439.839783,53.970375 437.027222,53.779030 432.004272,49.795876 
	C427.226349,52.814335 422.317474,55.915543 417.101105,59.213646 
M347.619629,68.034203 
	C347.474152,57.453423 346.525879,46.973175 344.042084,36.697052 
	C333.643280,37.639961 329.572845,41.310795 326.994354,50.704121 
	C325.909271,54.657124 327.537659,58.294636 327.126526,62.066765 
	C326.801727,65.047150 326.622559,68.290108 322.952271,69.243683 
	C319.536682,70.131081 317.248413,68.364594 315.499756,65.583900 
	C312.720734,61.164753 308.790527,58.412491 303.718781,56.986977 
	C296.891754,55.068134 290.568237,56.647793 284.267670,59.076130 
	C274.152161,62.974808 272.577087,66.030022 274.969055,76.584190 
	C278.859680,93.751175 286.588867,109.040550 297.328522,122.891273 
	C301.494080,128.263519 301.576447,128.390030 306.511566,124.197716 
	C318.688202,113.853851 331.179016,103.931427 344.558807,95.173897 
	C346.879791,93.654747 347.829712,91.692886 347.762054,88.904739 
	C347.600555,82.250778 347.655975,75.591545 347.619629,68.034203 
M346.886841,119.706398 
	C347.478943,114.164024 348.240021,108.620445 346.972504,102.324715 
	C332.627991,111.711243 319.721313,121.906509 307.118225,133.438263 
	C318.012115,143.643845 328.069458,153.849411 341.783386,160.710999 
	C344.585175,146.988358 346.283630,133.894897 346.886841,119.706398 
z"/>
<path fill="#000000" opacity="1.000000" stroke="none" 
	d="
M68.052048,140.474228 
	C62.811161,141.151123 60.693813,139.422577 62.360672,135.491394 
	C73.122177,110.111145 81.088318,83.447456 96.589561,60.222298 
	C98.286743,57.679447 99.942291,54.841225 103.637466,56.068657 
	C107.153053,57.236443 107.143723,60.470047 107.342010,63.520004 
	C108.393875,79.698860 104.047043,94.926651 98.413582,109.716202 
	C93.777977,121.886078 91.700912,134.080582 91.909599,147.141891 
	C92.401794,177.948242 92.091850,208.769592 91.889397,239.583466 
	C91.829376,248.719040 90.645821,257.843750 91.661766,266.995056 
	C91.907433,269.208008 90.643158,270.517822 88.621429,270.874359 
	C85.898460,271.354584 84.484566,269.496643 84.087540,267.263794 
	C83.419472,263.506775 82.885353,259.673004 82.844475,255.865631 
	C82.499474,223.729141 82.270683,191.591385 82.043983,159.453751 
	C82.031143,157.632935 82.341728,155.809692 82.504402,153.987823 
	C82.778152,150.921783 82.418060,148.367523 78.650520,147.600662 
	C75.321869,146.923126 74.766449,144.622040 75.369011,141.501846 
	C76.262840,136.873383 77.828995,132.402786 79.977608,128.365540 
	C83.164993,122.376404 82.683403,116.246361 81.979752,109.828720 
	C79.006462,117.648087 76.030571,125.466469 73.061310,133.287354 
	C72.040504,135.976089 70.565247,138.354752 68.052048,140.474228 
M97.906052,77.860832 
	C96.933464,75.483040 96.381416,77.494110 95.844627,78.110252 
	C90.999260,83.671883 92.084923,90.316811 92.253860,98.255257 
	C95.059952,90.944557 97.119438,84.903664 97.906052,77.860832 
z"/>
<path fill="#000000" opacity="1.000000" stroke="none" 
	d="
M341.786133,370.200317 
	C338.959808,366.979004 336.356232,364.032166 332.940826,360.166504 
	C332.085419,367.099335 333.721954,372.516663 334.645782,377.936005 
	C335.817810,384.811279 337.502045,391.597656 338.838043,398.447235 
	C339.409851,401.378784 340.204834,404.724854 336.301697,406.041748 
	C332.233002,407.414520 330.395050,404.496918 329.369415,401.377411 
	C320.111053,373.216919 305.677734,347.122253 296.539795,318.914429 
	C293.612549,309.878357 287.481934,302.270874 284.817322,293.068085 
	C283.989838,290.210175 283.324036,287.811188 286.848938,286.575989 
	C290.039490,285.457947 291.289948,287.482513 292.398010,290.005035 
	C301.831696,311.480896 310.122101,333.415558 318.702911,355.234375 
	C319.903778,358.287750 321.430084,361.213165 323.213654,365.082794 
	C323.775604,362.036926 323.420197,360.021759 323.187317,357.949249 
	C322.891876,355.319946 322.634033,352.601257 322.975525,350.001984 
	C323.899323,342.970032 327.388580,341.532745 333.214508,345.578339 
	C338.881836,349.513794 341.604370,355.825378 345.576538,361.117645 
	C351.675385,369.243378 357.646973,377.455811 365.827759,383.702454 
	C367.713440,385.142334 369.118225,386.871094 367.382874,389.153473 
	C365.532684,391.586975 363.081787,391.517944 360.786011,389.740997 
	C353.629700,384.201874 347.703156,377.447815 341.786133,370.200317 
z"/>
<path fill="#000000" opacity="1.000000" stroke="none" 
	d="
M379.277954,334.662354 
	C374.852692,327.341553 371.303986,319.961426 369.120667,312.110535 
	C366.508636,302.718140 360.355072,297.215393 351.722473,293.617340 
	C346.979797,291.640594 342.406891,289.208832 337.911835,286.705078 
	C335.478882,285.349915 332.573456,283.542145 334.510742,280.078491 
	C336.397919,276.704559 339.561249,277.404755 342.422455,278.793732 
	C346.906586,280.970520 351.290314,283.353271 355.751038,285.579712 
	C356.735779,286.071198 357.771881,286.873627 359.306183,285.924286 
	C359.941681,283.721893 358.719940,281.617889 358.038452,279.492340 
	C355.449249,271.417206 352.815674,263.357819 351.251404,255.001434 
	C351.008057,253.701447 350.771179,252.380081 350.743469,251.064117 
	C350.686829,248.375076 351.957703,246.432999 354.708099,246.230011 
	C357.278198,246.040329 359.574066,247.325928 359.736450,250.044754 
	C360.668518,265.649963 368.554718,279.241852 372.277069,294.033691 
	C374.047455,301.068848 379.342957,306.356201 382.352234,312.826019 
	C385.022797,318.567627 387.823425,324.239075 389.020020,330.504700 
	C389.493958,332.986237 389.697357,335.751953 386.832458,337.021973 
	C383.996429,338.279236 381.267914,338.027985 379.277954,334.662354 
z"/>
<path fill="#000000" opacity="1.000000" stroke="none" 
	d="
M124.728668,185.164322 
	C123.971169,183.083115 123.294739,181.381577 122.731552,179.643356 
	C122.036041,177.496765 121.059647,176.191101 118.404861,176.930893 
	C116.440056,177.478394 114.759979,176.530777 114.013077,174.559891 
	C113.255356,172.560440 114.042305,170.755524 115.775917,169.843246 
	C119.033188,168.129227 118.313446,165.798752 117.489265,163.092224 
	C116.233276,158.967697 115.210564,154.769348 114.180717,150.579742 
	C113.499557,147.808609 113.429497,144.979965 116.880287,144.122498 
	C120.170700,143.304901 121.797325,145.672791 122.670601,148.344559 
	C124.109138,152.745728 125.294876,157.229538 126.828697,162.509949 
	C133.225815,158.878983 139.166992,155.437317 145.176758,152.119873 
	C149.246201,149.873520 153.364777,147.703568 157.552643,145.689163 
	C160.036774,144.494278 162.974762,143.713608 164.580093,146.777420 
	C166.264969,149.993057 163.494232,151.801910 161.250992,153.037888 
	C152.959686,157.606186 144.456390,161.790115 136.170944,166.368546 
	C128.306824,170.714172 127.848129,173.476318 133.039383,181.659729 
	C133.310684,181.519791 133.726028,181.449142 133.834656,181.227875 
	C135.360397,178.120255 137.138580,174.839783 141.241943,176.334412 
	C145.512283,177.889862 144.344025,181.734070 143.500854,184.916153 
	C142.347641,189.268265 141.212891,193.546066 141.679276,198.141342 
	C141.840302,199.727982 141.329727,201.450287 140.835556,203.019135 
	C140.194122,205.055389 138.808212,206.411789 136.499634,206.557266 
	C134.175735,206.703690 133.440918,204.968735 132.542877,203.359558 
	C129.371674,197.677094 127.145668,191.590134 124.728668,185.164322 
z"/>
<path fill="#000000" opacity="1.000000" stroke="none" 
	d="
M313.813843,301.309753 
	C317.055756,297.613342 320.880280,296.712585 325.275879,296.803070 
	C331.929993,296.940063 337.905548,300.547668 344.679688,300.220306 
	C346.639374,300.125580 348.057312,302.151703 348.251190,304.424835 
	C348.582794,308.312897 348.753937,312.221039 345.119812,314.834930 
	C341.629181,317.345581 338.020721,319.712128 332.790192,320.737091 
	C336.705444,320.737091 339.696075,320.677856 342.683319,320.753662 
	C345.708069,320.830444 348.573212,321.616943 348.860107,325.172241 
	C349.117096,328.356842 346.888458,329.834961 343.952454,330.410248 
	C335.897034,331.988586 327.869812,331.801666 320.851868,327.351440 
	C312.517822,322.066650 310.348297,313.135101 313.813843,301.309753 
M322.724335,309.971283 
	C325.751648,311.370514 328.359711,311.602997 329.470276,307.519470 
	C327.266022,308.838684 323.241119,302.717987 322.724335,309.971283 
z"/>
<path fill="#000000" opacity="1.000000" stroke="none" 
	d="
M283.966125,336.364624 
	C281.855408,346.329376 283.554993,350.919403 290.591125,354.540680 
	C292.362854,352.597839 293.892426,349.861694 297.227081,350.404205 
	C299.290833,350.739960 301.278198,351.656036 301.482605,353.963013 
	C301.764740,357.146790 305.805847,359.888489 302.292175,363.570831 
	C297.640137,368.446136 288.099518,371.146851 281.543060,368.594910 
	C274.267059,365.762878 270.044342,360.351654 269.631683,352.368683 
	C269.246490,344.917267 269.207275,337.468567 270.673431,330.100159 
	C271.331482,326.793060 273.146576,324.294861 276.234772,322.911926 
	C279.403900,321.492706 282.923462,320.493835 285.194458,323.999451 
	C287.259552,327.187195 290.019135,330.887115 285.244171,334.368835 
	C284.744263,334.733337 284.501587,335.450714 283.966125,336.364624 
z"/>
<path fill="#000000" opacity="1.000000" stroke="none" 
	d="
M107.298210,214.140427 
	C100.718521,209.580643 94.673859,205.153824 95.723869,196.094894 
	C96.323082,190.925140 106.005173,182.334946 111.229118,182.686264 
	C115.376282,182.965195 117.893417,186.800354 116.685547,192.043671 
	C115.839684,195.715500 115.418701,198.607208 117.877640,202.176407 
	C120.234322,205.597198 119.052277,209.994507 116.349319,213.328629 
	C113.909348,216.338333 110.725609,215.478455 107.298210,214.140427 
z"/>
</svg>